<?xml version="1.0" standalone="no"?>
<!DOCTYPE svg PUBLIC "-//W3C//DTD SVG 20010904//EN"
 "http://www.w3.org/TR/2001/REC-SVG-20010904/DTD/svg10.dtd">
<svg version="1.0" xmlns="http://www.w3.org/2000/svg"
 width="700.000000pt" height="700.000000pt" viewBox="0 0 700.000000 700.000000"
 preserveAspectRatio="xMidYMid meet">
<metadata>
Created by potrace 1.14, written by Peter Selinger 2001-2017
</metadata>
<g transform="translate(0.000000,700.000000) scale(0.100000,-0.100000)"
fill="#000000" stroke="none">
<path d="M0 3500 l0 -3500 3500 0 3500 0 0 3500 0 3500 -3500 0 -3500 0 0
-3500z m2210 2210 l0 -920 -920 0 -920 0 2 803 3 802 27 50 c44 83 122 150
208 176 14 4 379 8 813 8 l787 1 0 -920z m2210 0 l0 -920 -920 0 -920 0 0 920
0 920 920 0 920 0 0 -920z m2025 888 c64 -33 120 -89 153 -153 l27 -50 3 -802
2 -803 -920 0 -920 0 0 920 0 920 803 -2 802 -3 50 -27z m-4235 -3098 l0 -920
-920 0 -920 0 0 920 0 920 920 0 920 0 0 -920z m2210 0 l0 -920 -920 0 -920 0
0 920 0 920 920 0 920 0 0 -920z m2210 0 l0 -920 -920 0 -920 0 0 920 0 920
920 0 920 0 0 -920z m-4420 -2210 l0 -921 -793 3 -792 3 -67 33 c-76 37 -120
82 -157 162 l-26 55 -3 793 -3 792 921 0 920 0 0 -920z m2210 0 l0 -920 -920
0 -920 0 0 920 0 920 920 0 920 0 0 -920z m2208 128 l-3 -793 -26 -55 c-37
-80 -81 -125 -157 -162 l-67 -33 -792 -3 -793 -3 0 921 0 920 920 0 921 0 -3
-792z"/>
</g>
</svg>
